# xmcd
#
# Track frame offsets:
#	150
#	10615
#	22627
#	34467
#	47760
#	58270
#	71860
#	83545
#	93507
#	105402
#	119087
#	130015
#	141137
#	154632
#	167517
#	180995
#	191282
#	204812
#	216440
#	228402
#
# Disc length: 3181
#
# Revision: 1
# Processed by: cddbd v1.5.1PL0 Copyright (c) Steve Scherf et al.
# Submitted via: CDex 1.51
# Normalized: r0:DSETVAR1
#
DISCID=020c6b14
DTITLE=Various Artist - 20 Golden Country Memories 2
DYEAR=1900
DGENRE=Country
TTITLE0=Jim Reeves - He'll Have To Go
TTITLE1=Conway Twitty - To See My Angel Cry
TTITLE2=Skeeter Davis - The End Of The World
TTITLE3=Ray Peterson - Tell Laura I Love Her
TTITLE4=The Everly Brothers - All I Have To Do Is Dream
TTITLE5=Patsy Cline - She's Got You
TTITLE6=Don Gibson - I Can't Stop Loving You
TTITLE7=Don Williams - Take My Hand For A While
TTITLE8=Jack Greene - There Goes My Everything
TTITLE9=Patti Page - Changing Partner
TTITLE10=Hank Locklin - Send Me The Pillow That You Dream On
TTITLE11=Adam Wade - Take Good Care Of Her
TTITLE12=Kitty Wells - Making Believe
TTITLE13=Jerry Wallance - In The Misty Moonlight
TTITLE14=David Houston - Almost Persuaded
TTITLE15=Wanda Jackson - It's Only Make Believ e
TTITLE16=Kingston Trio - Where Have All The Flowers Gone
TTITLE17=Guy Mitchell - Heartaches By The Number
TTITLE18=Jody Miller - Queen Of The House
TTITLE19=Ricky Nelson - Hello Mary Lou
EXTD=
EXTT0=
EXTT1=
EXTT2=
EXTT3=
EXTT4=
EXTT5=
EXTT6=
EXTT7=
EXTT8=
EXTT9=
EXTT10=
EXTT11=
EXTT12=
EXTT13=
EXTT14=
EXTT15=
EXTT16=
EXTT17=
EXTT18=
EXTT19=
PLAYORDER=
